<svg xmlns="http://www.w3.org/2000/svg" viewBox="0 0 120 120" role="img" aria-label="VARTA app icon">
  <defs>
    <linearGradient id="vartaGradient" x1="0" y1="0" x2="1" y2="1">
      <stop offset="0%" stop-color="#7C3AED"/>
      <stop offset="45%" stop-color="#3B82F6"/>
      <stop offset="100%" stop-color="#06B6D4"/>
    </linearGradient>
    <radialGradient id="glow" cx="50%" cy="40%" r="60%">
      <stop offset="0%" stop-color="#7C3AED" stop-opacity="0.35"/>
      <stop offset="100%" stop-color="#0F172A" stop-opacity="0"/>
    </radialGradient>
  </defs>
  <rect width="120" height="120" rx="32" fill="#0F172A"/>
  <circle cx="60" cy="60" r="46" fill="url(#glow)"/>
  <path d="M31 29c0-5.5 4.5-10 10-10h8.5l17.8 42 17.8-42h8.5c5.5 0 10 4.5 10 10v28c0 5.5-4.5 10-10 10H68l-16 16a8 8 0 0 1-13.5-5.5V59H41c-5.5 0-10-4.5-10-10V29Z" fill="url(#vartaGradient)"/>
  <path d="M39 36L60 68L82 36" stroke="#FFFFFF" stroke-width="10" stroke-linecap="round" stroke-linejoin="round"/>
  <circle cx="84" cy="22" r="5.5" fill="#06B6D4"/>
  <circle cx="96" cy="34" r="4.5" fill="#7C3AED"/>
  <circle cx="84" cy="46" r="4.5" fill="#3B82F6"/>
  <path d="M82 28L89 42" stroke="#FFFFFF" stroke-width="2" stroke-linecap="round"/>
  <path d="M88 32L93 36" stroke="#FFFFFF" stroke-width="2" stroke-linecap="round"/>
</svg>
