<svg xmlns="http://www.w3.org/2000/svg" viewBox="0 0 200 260" role="img" aria-label="VARTA logo vertical">
  <defs>
    <linearGradient id="vGradient" x1="0" y1="0" x2="1" y2="1">
      <stop offset="0%" stop-color="#7C3AED"/>
      <stop offset="50%" stop-color="#3B82F6"/>
      <stop offset="100%" stop-color="#06B6D4"/>
    </linearGradient>
    <linearGradient id="vTextGradient" x1="0" y1="0" x2="1" y2="0">
      <stop offset="0%" stop-color="#FFFFFF"/>
      <stop offset="100%" stop-color="#CBD5E1"/>
    </linearGradient>
  </defs>
  <rect width="200" height="260" rx="34" fill="#0F172A"/>
  <g transform="translate(38 20)">
    <path d="M20 2C11.16 2 4 9.16 4 18v28c0 8.84 7.16 16 16 16h4l12 12a14 14 0 0 0 21-9.19V54h11c8.84 0 16-7.16 16-16V18c0-8.84-7.16-16-16-16H67l-15-1L36 2H24Z" fill="url(#vGradient)"/>
    <path d="M46 28L62 60L82 28" stroke="#FFFFFF" stroke-width="10" stroke-linecap="round" stroke-linejoin="round"/>
    <circle cx="84" cy="22" r="5" fill="#06B6D4"/>
    <circle cx="96" cy="34" r="4" fill="#7C3AED"/>
    <circle cx="84" cy="46" r="4" fill="#3B82F6"/>
  </g>
  <text x="20" y="160" fill="url(#vTextGradient)" font-family="Inter,system-ui,sans-serif" font-weight="800" font-size="42" letter-spacing="-0.05em">VARTA</text>
  <text x="20" y="190" fill="#94A3B8" font-family="Inter,system-ui,sans-serif" font-weight="500" font-size="16" letter-spacing="0.08em">Connect • Chat • Collaborate</text>
</svg>
